<?xml version="1.0" encoding="UTF-8" standalone="no"?>
<!DOCTYPE svg PUBLIC "-//W3C//DTD SVG 1.1//EN"
 "http://www.w3.org/Graphics/SVG/1.1/DTD/svg11.dtd">
<!-- Generated by graphviz version 2.38.0 (20140413.2041)
 -->
<!-- Title: unnamed Pages: 1 -->
<svg width="882pt" height="483pt"
 viewBox="0.00 0.00 881.50 483.00" xmlns="http://www.w3.org/2000/svg" xmlns:xlink="http://www.w3.org/1999/xlink">
<g id="graph0" class="graph" transform="scale(1 1) rotate(0) translate(4 479)">
<title>unnamed</title>
<polygon fill="white" stroke="none" points="-4,4 -4,-479 877.5,-479 877.5,4 -4,4"/>
<!-- Node0xafe52a8 -->
<g id="node1" class="node"><title>Node0xafe52a8</title>
<polygon fill="none" stroke="black" points="289,-438.5 289,-474.5 393,-474.5 393,-438.5 289,-438.5"/>
<text text-anchor="middle" x="341" y="-452.8" font-family="Times,serif" font-size="14.00">CompoundStmt</text>
</g>
<!-- Node0xafe4e90 -->
<g id="node2" class="node"><title>Node0xafe4e90</title>
<polygon fill="none" stroke="black" points="221,-365.5 221,-401.5 289,-401.5 289,-365.5 221,-365.5"/>
<text text-anchor="middle" x="255" y="-379.8" font-family="Times,serif" font-size="14.00">DeclStmt</text>
</g>
<!-- Node0xafe52a8&#45;&gt;Node0xafe4e90 -->
<g id="edge1" class="edge"><title>Node0xafe52a8&#45;&gt;Node0xafe4e90</title>
<path fill="none" stroke="black" d="M320.182,-438.313C309.196,-429.243 295.549,-417.977 283.586,-408.1"/>
<polygon fill="black" stroke="black" points="285.566,-405.196 275.626,-401.529 281.11,-410.594 285.566,-405.196"/>
</g>
<!-- Node0xafe4f18 -->
<g id="node3" class="node"><title>Node0xafe4f18</title>
<polygon fill="none" stroke="black" points="307,-365.5 307,-401.5 375,-401.5 375,-365.5 307,-365.5"/>
<text text-anchor="middle" x="341" y="-379.8" font-family="Times,serif" font-size="14.00">DeclStmt</text>
</g>
<!-- Node0xafe52a8&#45;&gt;Node0xafe4f18 -->
<g id="edge2" class="edge"><title>Node0xafe52a8&#45;&gt;Node0xafe4f18</title>
<path fill="none" stroke="black" d="M341,-438.313C341,-430.289 341,-420.547 341,-411.569"/>
<polygon fill="black" stroke="black" points="344.5,-411.529 341,-401.529 337.5,-411.529 344.5,-411.529"/>
</g>
<!-- Node0xafe5270 -->
<g id="node4" class="node"><title>Node0xafe5270</title>
<polygon fill="none" stroke="black" points="393,-365.5 393,-401.5 455,-401.5 455,-365.5 393,-365.5"/>
<text text-anchor="middle" x="424" y="-379.8" font-family="Times,serif" font-size="14.00">ForStmt</text>
</g>
<!-- Node0xafe52a8&#45;&gt;Node0xafe5270 -->
<g id="edge3" class="edge"><title>Node0xafe52a8&#45;&gt;Node0xafe5270</title>
<path fill="none" stroke="black" d="M361.092,-438.313C371.695,-429.243 384.865,-417.977 396.411,-408.1"/>
<polygon fill="black" stroke="black" points="398.769,-410.689 404.093,-401.529 394.219,-405.37 398.769,-410.689"/>
</g>
<!-- Node0xafe4f78 -->
<g id="node5" class="node"><title>Node0xafe4f78</title>
<polygon fill="none" stroke="black" points="101.5,-292.5 101.5,-328.5 202.5,-328.5 202.5,-292.5 101.5,-292.5"/>
<text text-anchor="middle" x="152" y="-306.8" font-family="Times,serif" font-size="14.00">BinaryOperator</text>
</g>
<!-- Node0xafe5270&#45;&gt;Node0xafe4f78 -->
<g id="edge4" class="edge"><title>Node0xafe5270&#45;&gt;Node0xafe4f78</title>
<path fill="none" stroke="black" d="M392.772,-368.182C389.834,-367.034 386.879,-365.952 384,-365 326.966,-346.13 259.916,-331.442 212.605,-322.27"/>
<polygon fill="black" stroke="black" points="213.001,-318.782 202.521,-320.341 211.685,-325.658 213.001,-318.782"/>
</g>
<!-- Node0xafe5000 -->
<g id="node6" class="node"><title>Node0xafe5000</title>
<polygon fill="none" stroke="black" points="314.5,-292.5 314.5,-328.5 415.5,-328.5 415.5,-292.5 314.5,-292.5"/>
<text text-anchor="middle" x="365" y="-306.8" font-family="Times,serif" font-size="14.00">BinaryOperator</text>
</g>
<!-- Node0xafe5270&#45;&gt;Node0xafe5000 -->
<g id="edge5" class="edge"><title>Node0xafe5270&#45;&gt;Node0xafe5000</title>
<path fill="none" stroke="black" d="M409.718,-365.313C402.471,-356.592 393.536,-345.84 385.564,-336.246"/>
<polygon fill="black" stroke="black" points="388.234,-333.983 379.151,-328.529 382.85,-338.457 388.234,-333.983"/>
</g>
<!-- Node0xafe5050 -->
<g id="node7" class="node"><title>Node0xafe5050</title>
<polygon fill="none" stroke="black" points="434,-292.5 434,-328.5 532,-328.5 532,-292.5 434,-292.5"/>
<text text-anchor="middle" x="483" y="-306.8" font-family="Times,serif" font-size="14.00">UnaryOperator</text>
</g>
<!-- Node0xafe5270&#45;&gt;Node0xafe5050 -->
<g id="edge6" class="edge"><title>Node0xafe5270&#45;&gt;Node0xafe5050</title>
<path fill="none" stroke="black" d="M438.282,-365.313C445.529,-356.592 454.464,-345.84 462.436,-336.246"/>
<polygon fill="black" stroke="black" points="465.15,-338.457 468.849,-328.529 459.766,-333.983 465.15,-338.457"/>
</g>
<!-- Node0xafe5250 -->
<g id="node8" class="node"><title>Node0xafe5250</title>
<polygon fill="none" stroke="black" points="550,-292.5 550,-328.5 654,-328.5 654,-292.5 550,-292.5"/>
<text text-anchor="middle" x="602" y="-306.8" font-family="Times,serif" font-size="14.00">CompoundStmt</text>
</g>
<!-- Node0xafe5270&#45;&gt;Node0xafe5250 -->
<g id="edge7" class="edge"><title>Node0xafe5270&#45;&gt;Node0xafe5250</title>
<path fill="none" stroke="black" d="M455.005,-370.133C481.183,-359.691 519.217,-344.52 550.038,-332.226"/>
<polygon fill="black" stroke="black" points="551.359,-335.468 559.35,-328.512 548.765,-328.966 551.359,-335.468"/>
</g>
<!-- Node0xafe4f30 -->
<g id="node9" class="node"><title>Node0xafe4f30</title>
<polygon fill="none" stroke="black" points="0,-219.5 0,-255.5 88,-255.5 88,-219.5 0,-219.5"/>
<text text-anchor="middle" x="44" y="-233.8" font-family="Times,serif" font-size="14.00">DeclRefExpr</text>
</g>
<!-- Node0xafe4f78&#45;&gt;Node0xafe4f30 -->
<g id="edge8" class="edge"><title>Node0xafe4f78&#45;&gt;Node0xafe4f30</title>
<path fill="none" stroke="black" d="M126.131,-292.494C111.942,-283.166 94.1579,-271.474 78.7699,-261.358"/>
<polygon fill="black" stroke="black" points="80.3107,-258.182 70.0319,-255.614 76.4653,-264.032 80.3107,-258.182"/>
</g>
<!-- Node0xafe4f58 -->
<g id="node10" class="node"><title>Node0xafe4f58</title>
<polygon fill="none" stroke="black" points="106.5,-219.5 106.5,-255.5 197.5,-255.5 197.5,-219.5 106.5,-219.5"/>
<text text-anchor="middle" x="152" y="-233.8" font-family="Times,serif" font-size="14.00">IntegerLiteral</text>
</g>
<!-- Node0xafe4f78&#45;&gt;Node0xafe4f58 -->
<g id="edge9" class="edge"><title>Node0xafe4f78&#45;&gt;Node0xafe4f58</title>
<path fill="none" stroke="black" d="M152,-292.313C152,-284.289 152,-274.547 152,-265.569"/>
<polygon fill="black" stroke="black" points="155.5,-265.529 152,-255.529 148.5,-265.529 155.5,-265.529"/>
</g>
<!-- Node0xafe4fe8 -->
<g id="node11" class="node"><title>Node0xafe4fe8</title>
<polygon fill="none" stroke="black" points="216,-219.5 216,-255.5 326,-255.5 326,-219.5 216,-219.5"/>
<text text-anchor="middle" x="271" y="-233.8" font-family="Times,serif" font-size="14.00">ImplicitCastExpr</text>
</g>
<!-- Node0xafe5000&#45;&gt;Node0xafe4fe8 -->
<g id="edge10" class="edge"><title>Node0xafe5000&#45;&gt;Node0xafe4fe8</title>
<path fill="none" stroke="black" d="M342.245,-292.313C330.122,-283.156 315.034,-271.76 301.869,-261.816"/>
<polygon fill="black" stroke="black" points="303.634,-258.763 293.545,-255.529 299.415,-264.349 303.634,-258.763"/>
</g>
<!-- Node0xafe4fc8 -->
<g id="node12" class="node"><title>Node0xafe4fc8</title>
<polygon fill="none" stroke="black" points="344.5,-219.5 344.5,-255.5 435.5,-255.5 435.5,-219.5 344.5,-219.5"/>
<text text-anchor="middle" x="390" y="-233.8" font-family="Times,serif" font-size="14.00">IntegerLiteral</text>
</g>
<!-- Node0xafe5000&#45;&gt;Node0xafe4fc8 -->
<g id="edge11" class="edge"><title>Node0xafe5000&#45;&gt;Node0xafe4fc8</title>
<path fill="none" stroke="black" d="M371.052,-292.313C373.938,-284.115 377.457,-274.123 380.674,-264.985"/>
<polygon fill="black" stroke="black" points="383.984,-266.124 384.004,-255.529 377.381,-263.799 383.984,-266.124"/>
</g>
<!-- Node0xafe5028 -->
<g id="node14" class="node"><title>Node0xafe5028</title>
<polygon fill="none" stroke="black" points="454,-219.5 454,-255.5 542,-255.5 542,-219.5 454,-219.5"/>
<text text-anchor="middle" x="498" y="-233.8" font-family="Times,serif" font-size="14.00">DeclRefExpr</text>
</g>
<!-- Node0xafe5050&#45;&gt;Node0xafe5028 -->
<g id="edge13" class="edge"><title>Node0xafe5050&#45;&gt;Node0xafe5028</title>
<path fill="none" stroke="black" d="M486.631,-292.313C488.326,-284.289 490.384,-274.547 492.281,-265.569"/>
<polygon fill="black" stroke="black" points="495.76,-266.036 494.402,-255.529 488.911,-264.589 495.76,-266.036"/>
</g>
<!-- Node0xafe5218 -->
<g id="node15" class="node"><title>Node0xafe5218</title>
<polygon fill="none" stroke="black" points="575,-219.5 575,-255.5 629,-255.5 629,-219.5 575,-219.5"/>
<text text-anchor="middle" x="602" y="-233.8" font-family="Times,serif" font-size="14.00">IfStmt</text>
</g>
<!-- Node0xafe5250&#45;&gt;Node0xafe5218 -->
<g id="edge14" class="edge"><title>Node0xafe5250&#45;&gt;Node0xafe5218</title>
<path fill="none" stroke="black" d="M602,-292.313C602,-284.289 602,-274.547 602,-265.569"/>
<polygon fill="black" stroke="black" points="605.5,-265.529 602,-255.529 598.5,-265.529 605.5,-265.529"/>
</g>
<!-- Node0xafe4fa0 -->
<g id="node13" class="node"><title>Node0xafe4fa0</title>
<polygon fill="none" stroke="black" points="227,-146.5 227,-182.5 315,-182.5 315,-146.5 227,-146.5"/>
<text text-anchor="middle" x="271" y="-160.8" font-family="Times,serif" font-size="14.00">DeclRefExpr</text>
</g>
<!-- Node0xafe4fe8&#45;&gt;Node0xafe4fa0 -->
<g id="edge12" class="edge"><title>Node0xafe4fe8&#45;&gt;Node0xafe4fa0</title>
<path fill="none" stroke="black" d="M271,-219.313C271,-211.289 271,-201.547 271,-192.569"/>
<polygon fill="black" stroke="black" points="274.5,-192.529 271,-182.529 267.5,-192.529 274.5,-192.529"/>
</g>
<!-- Node0xafe50d0 -->
<g id="node16" class="node"><title>Node0xafe50d0</title>
<polygon fill="none" stroke="black" points="430.5,-146.5 430.5,-182.5 531.5,-182.5 531.5,-146.5 430.5,-146.5"/>
<text text-anchor="middle" x="481" y="-160.8" font-family="Times,serif" font-size="14.00">BinaryOperator</text>
</g>
<!-- Node0xafe5218&#45;&gt;Node0xafe50d0 -->
<g id="edge15" class="edge"><title>Node0xafe5218&#45;&gt;Node0xafe50d0</title>
<path fill="none" stroke="black" d="M574.845,-220.566C558.469,-210.957 537.352,-198.566 519.298,-187.972"/>
<polygon fill="black" stroke="black" points="520.574,-184.663 510.177,-182.621 517.031,-190.7 520.574,-184.663"/>
</g>
<!-- Node0xafe5168 -->
<g id="node17" class="node"><title>Node0xafe5168</title>
<polygon fill="none" stroke="black" points="550,-146.5 550,-182.5 654,-182.5 654,-146.5 550,-146.5"/>
<text text-anchor="middle" x="602" y="-160.8" font-family="Times,serif" font-size="14.00">CompoundStmt</text>
</g>
<!-- Node0xafe5218&#45;&gt;Node0xafe5168 -->
<g id="edge16" class="edge"><title>Node0xafe5218&#45;&gt;Node0xafe5168</title>
<path fill="none" stroke="black" d="M602,-219.313C602,-211.289 602,-201.547 602,-192.569"/>
<polygon fill="black" stroke="black" points="605.5,-192.529 602,-182.529 598.5,-192.529 605.5,-192.529"/>
</g>
<!-- Node0xafe51f8 -->
<g id="node18" class="node"><title>Node0xafe51f8</title>
<polygon fill="none" stroke="black" points="672,-146.5 672,-182.5 776,-182.5 776,-146.5 672,-146.5"/>
<text text-anchor="middle" x="724" y="-160.8" font-family="Times,serif" font-size="14.00">CompoundStmt</text>
</g>
<!-- Node0xafe5218&#45;&gt;Node0xafe51f8 -->
<g id="edge17" class="edge"><title>Node0xafe5218&#45;&gt;Node0xafe51f8</title>
<path fill="none" stroke="black" d="M629.076,-220.743C645.726,-211.053 667.321,-198.485 685.706,-187.786"/>
<polygon fill="black" stroke="black" points="687.556,-190.759 694.438,-182.704 684.035,-184.709 687.556,-190.759"/>
</g>
<!-- Node0xafe50b8 -->
<g id="node19" class="node"><title>Node0xafe50b8</title>
<polygon fill="none" stroke="black" points="310,-73.5 310,-109.5 420,-109.5 420,-73.5 310,-73.5"/>
<text text-anchor="middle" x="365" y="-87.8" font-family="Times,serif" font-size="14.00">ImplicitCastExpr</text>
</g>
<!-- Node0xafe50d0&#45;&gt;Node0xafe50b8 -->
<g id="edge18" class="edge"><title>Node0xafe50d0&#45;&gt;Node0xafe50b8</title>
<path fill="none" stroke="black" d="M453.215,-146.494C437.833,-137.079 418.516,-125.255 401.883,-115.075"/>
<polygon fill="black" stroke="black" points="403.317,-111.849 392.96,-109.614 399.662,-117.819 403.317,-111.849"/>
</g>
<!-- Node0xafe5098 -->
<g id="node20" class="node"><title>Node0xafe5098</title>
<polygon fill="none" stroke="black" points="438.5,-73.5 438.5,-109.5 529.5,-109.5 529.5,-73.5 438.5,-73.5"/>
<text text-anchor="middle" x="484" y="-87.8" font-family="Times,serif" font-size="14.00">IntegerLiteral</text>
</g>
<!-- Node0xafe50d0&#45;&gt;Node0xafe5098 -->
<g id="edge19" class="edge"><title>Node0xafe50d0&#45;&gt;Node0xafe5098</title>
<path fill="none" stroke="black" d="M481.726,-146.313C482.065,-138.289 482.477,-128.547 482.856,-119.569"/>
<polygon fill="black" stroke="black" points="486.355,-119.668 483.28,-109.529 479.361,-119.372 486.355,-119.668"/>
</g>
<!-- Node0xafe5140 -->
<g id="node22" class="node"><title>Node0xafe5140</title>
<polygon fill="none" stroke="black" points="551.5,-73.5 551.5,-109.5 652.5,-109.5 652.5,-73.5 551.5,-73.5"/>
<text text-anchor="middle" x="602" y="-87.8" font-family="Times,serif" font-size="14.00">BinaryOperator</text>
</g>
<!-- Node0xafe5168&#45;&gt;Node0xafe5140 -->
<g id="edge21" class="edge"><title>Node0xafe5168&#45;&gt;Node0xafe5140</title>
<path fill="none" stroke="black" d="M602,-146.313C602,-138.289 602,-128.547 602,-119.569"/>
<polygon fill="black" stroke="black" points="605.5,-119.529 602,-109.529 598.5,-119.529 605.5,-119.529"/>
</g>
<!-- Node0xafe51d0 -->
<g id="node25" class="node"><title>Node0xafe51d0</title>
<polygon fill="none" stroke="black" points="673.5,-73.5 673.5,-109.5 774.5,-109.5 774.5,-73.5 673.5,-73.5"/>
<text text-anchor="middle" x="724" y="-87.8" font-family="Times,serif" font-size="14.00">BinaryOperator</text>
</g>
<!-- Node0xafe51f8&#45;&gt;Node0xafe51d0 -->
<g id="edge24" class="edge"><title>Node0xafe51f8&#45;&gt;Node0xafe51d0</title>
<path fill="none" stroke="black" d="M724,-146.313C724,-138.289 724,-128.547 724,-119.569"/>
<polygon fill="black" stroke="black" points="727.5,-119.529 724,-109.529 720.5,-119.529 727.5,-119.529"/>
</g>
<!-- Node0xafe5070 -->
<g id="node21" class="node"><title>Node0xafe5070</title>
<polygon fill="none" stroke="black" points="321,-0.5 321,-36.5 409,-36.5 409,-0.5 321,-0.5"/>
<text text-anchor="middle" x="365" y="-14.8" font-family="Times,serif" font-size="14.00">DeclRefExpr</text>
</g>
<!-- Node0xafe50b8&#45;&gt;Node0xafe5070 -->
<g id="edge20" class="edge"><title>Node0xafe50b8&#45;&gt;Node0xafe5070</title>
<path fill="none" stroke="black" d="M365,-73.3129C365,-65.2895 365,-55.5475 365,-46.5691"/>
<polygon fill="black" stroke="black" points="368.5,-46.5288 365,-36.5288 361.5,-46.5289 368.5,-46.5288"/>
</g>
<!-- Node0xafe50f8 -->
<g id="node23" class="node"><title>Node0xafe50f8</title>
<polygon fill="none" stroke="black" points="453,-0.5 453,-36.5 541,-36.5 541,-0.5 453,-0.5"/>
<text text-anchor="middle" x="497" y="-14.8" font-family="Times,serif" font-size="14.00">DeclRefExpr</text>
</g>
<!-- Node0xafe5140&#45;&gt;Node0xafe50f8 -->
<g id="edge22" class="edge"><title>Node0xafe5140&#45;&gt;Node0xafe50f8</title>
<path fill="none" stroke="black" d="M576.85,-73.4937C563.055,-64.1657 545.765,-52.4742 530.804,-42.358"/>
<polygon fill="black" stroke="black" points="532.553,-39.3157 522.309,-36.6136 528.632,-45.1145 532.553,-39.3157"/>
</g>
<!-- Node0xafe5120 -->
<g id="node24" class="node"><title>Node0xafe5120</title>
<polygon fill="none" stroke="black" points="559.5,-0.5 559.5,-36.5 650.5,-36.5 650.5,-0.5 559.5,-0.5"/>
<text text-anchor="middle" x="605" y="-14.8" font-family="Times,serif" font-size="14.00">IntegerLiteral</text>
</g>
<!-- Node0xafe5140&#45;&gt;Node0xafe5120 -->
<g id="edge23" class="edge"><title>Node0xafe5140&#45;&gt;Node0xafe5120</title>
<path fill="none" stroke="black" d="M602.726,-73.3129C603.065,-65.2895 603.477,-55.5475 603.856,-46.5691"/>
<polygon fill="black" stroke="black" points="607.355,-46.6677 604.28,-36.5288 600.361,-46.3721 607.355,-46.6677"/>
</g>
<!-- Node0xafe5188 -->
<g id="node26" class="node"><title>Node0xafe5188</title>
<polygon fill="none" stroke="black" points="676,-0.5 676,-36.5 764,-36.5 764,-0.5 676,-0.5"/>
<text text-anchor="middle" x="720" y="-14.8" font-family="Times,serif" font-size="14.00">DeclRefExpr</text>
</g>
<!-- Node0xafe51d0&#45;&gt;Node0xafe5188 -->
<g id="edge25" class="edge"><title>Node0xafe51d0&#45;&gt;Node0xafe5188</title>
<path fill="none" stroke="black" d="M723.032,-73.3129C722.58,-65.2895 722.031,-55.5475 721.525,-46.5691"/>
<polygon fill="black" stroke="black" points="725.016,-46.3161 720.959,-36.5288 718.027,-46.7099 725.016,-46.3161"/>
</g>
<!-- Node0xafe51b0 -->
<g id="node27" class="node"><title>Node0xafe51b0</title>
<polygon fill="none" stroke="black" points="782.5,-0.5 782.5,-36.5 873.5,-36.5 873.5,-0.5 782.5,-0.5"/>
<text text-anchor="middle" x="828" y="-14.8" font-family="Times,serif" font-size="14.00">IntegerLiteral</text>
</g>
<!-- Node0xafe51d0&#45;&gt;Node0xafe51b0 -->
<g id="edge26" class="edge"><title>Node0xafe51d0&#45;&gt;Node0xafe51b0</title>
<path fill="none" stroke="black" d="M748.911,-73.4937C762.574,-64.1657 779.7,-52.4742 794.518,-42.358"/>
<polygon fill="black" stroke="black" points="796.647,-45.1425 802.932,-36.6136 792.7,-39.3613 796.647,-45.1425"/>
</g>
</g>
</svg>
