<?xml version="1.0" encoding="UTF-8" standalone="no"?>
<!DOCTYPE svg PUBLIC "-//W3C//DTD SVG 1.1//EN"
 "http://www.w3.org/Graphics/SVG/1.1/DTD/svg11.dtd">
<!-- Generated by graphviz version 2.38.0 (20140413.2041)
 -->
<!-- Title: unnamed Pages: 1 -->
<svg width="522pt" height="645pt"
 viewBox="0.00 0.00 522.00 645.00" xmlns="http://www.w3.org/2000/svg" xmlns:xlink="http://www.w3.org/1999/xlink">
<g id="graph0" class="graph" transform="scale(1 1) rotate(0) translate(4 641)">
<title>unnamed</title>
<polygon fill="white" stroke="none" points="-4,4 -4,-641 518,-641 518,4 -4,4"/>
<!-- Node0xa03e7a0 -->
<g id="node1" class="node"><title>Node0xa03e7a0</title>
<polygon fill="none" stroke="black" points="108.5,-226.5 108.5,-262.5 193.5,-262.5 193.5,-226.5 108.5,-226.5"/>
<text text-anchor="start" x="116.5" y="-240.8" font-family="Times,serif" font-size="14.00">[B0 (EXIT)]</text>
</g>
<!-- Node0xa03e878 -->
<g id="node2" class="node"><title>Node0xa03e878</title>
<polygon fill="none" stroke="black" points="181,-0.5 181,-53.5 267,-53.5 267,-0.5 181,-0.5"/>
<text text-anchor="start" x="189" y="-38.3" font-family="Times,serif" font-size="14.00">[B1]</text>
<text text-anchor="start" x="189" y="-23.3" font-family="Times,serif" font-size="14.00"> 1: i</text>
<text text-anchor="start" x="189" y="-8.3" font-family="Times,serif" font-size="14.00"> 2: [B1.1]++</text>
</g>
<!-- Node0xa03ec18 -->
<g id="node3" class="node"><title>Node0xa03ec18</title>
<polygon fill="none" stroke="black" points="0,-330.5 0,-428.5 302,-428.5 302,-330.5 0,-330.5"/>
<text text-anchor="start" x="8" y="-413.3" font-family="Times,serif" font-size="14.00">[B5]</text>
<text text-anchor="start" x="8" y="-398.3" font-family="Times,serif" font-size="14.00"> 1: i</text>
<text text-anchor="start" x="8" y="-383.3" font-family="Times,serif" font-size="14.00"> 2: [B5.1] (ImplicitCastExpr, LValueToRValue, int)</text>
<text text-anchor="start" x="8" y="-368.3" font-family="Times,serif" font-size="14.00"> 3: 100</text>
<text text-anchor="start" x="8" y="-353.3" font-family="Times,serif" font-size="14.00"> 4: [B5.2] &lt; [B5.3]</text>
<text text-anchor="start" x="8" y="-338.3" font-family="Times,serif" font-size="14.00"> T: for (...; [B5.4]; ...)</text>
</g>
<!-- Node0xa03e878&#45;&gt;Node0xa03ec18 -->
<g id="edge1" class="edge"><title>Node0xa03e878&#45;&gt;Node0xa03ec18</title>
<path fill="none" stroke="black" d="M190.279,-53.5565C177.912,-63.9808 164.408,-76.7059 154,-90 121.525,-131.481 111.587,-143.845 99,-195 88.4874,-237.726 87.0169,-251.663 99,-294 101.611,-303.226 105.546,-312.435 110.104,-321.198"/>
<polygon fill="black" stroke="black" points="107.151,-323.091 115.051,-330.151 113.278,-319.705 107.151,-323.091"/>
</g>
<!-- Node0xa03ec18&#45;&gt;Node0xa03e7a0 -->
<g id="edge7" class="edge"><title>Node0xa03ec18&#45;&gt;Node0xa03e7a0</title>
<path fill="none" stroke="black" d="M151,-330.484C151,-311.074 151,-289.382 151,-272.772"/>
<polygon fill="black" stroke="black" points="154.5,-272.666 151,-262.666 147.5,-272.666 154.5,-272.666"/>
</g>
<!-- Node0xa03eb20 -->
<g id="node6" class="node"><title>Node0xa03eb20</title>
<polygon fill="none" stroke="black" points="212,-195.5 212,-293.5 514,-293.5 514,-195.5 212,-195.5"/>
<text text-anchor="start" x="220" y="-278.3" font-family="Times,serif" font-size="14.00">[B4]</text>
<text text-anchor="start" x="220" y="-263.3" font-family="Times,serif" font-size="14.00"> 1: i</text>
<text text-anchor="start" x="220" y="-248.3" font-family="Times,serif" font-size="14.00"> 2: [B4.1] (ImplicitCastExpr, LValueToRValue, int)</text>
<text text-anchor="start" x="220" y="-233.3" font-family="Times,serif" font-size="14.00"> 3: 50</text>
<text text-anchor="start" x="220" y="-218.3" font-family="Times,serif" font-size="14.00"> 4: [B4.2] &lt; [B4.3]</text>
<text text-anchor="start" x="220" y="-203.3" font-family="Times,serif" font-size="14.00"> T: if [B4.4]</text>
</g>
<!-- Node0xa03ec18&#45;&gt;Node0xa03eb20 -->
<g id="edge6" class="edge"><title>Node0xa03ec18&#45;&gt;Node0xa03eb20</title>
<path fill="none" stroke="black" d="M227.537,-330.484C243.798,-320.283 261.063,-309.451 277.629,-299.058"/>
<polygon fill="black" stroke="black" points="279.609,-301.948 286.22,-293.669 275.889,-296.018 279.609,-301.948"/>
</g>
<!-- Node0xa03e950 -->
<g id="node4" class="node"><title>Node0xa03e950</title>
<polygon fill="none" stroke="black" points="163.5,-90.5 163.5,-158.5 284.5,-158.5 284.5,-90.5 163.5,-90.5"/>
<text text-anchor="start" x="171.5" y="-143.3" font-family="Times,serif" font-size="14.00">[B2]</text>
<text text-anchor="start" x="171.5" y="-128.3" font-family="Times,serif" font-size="14.00"> 1: 0</text>
<text text-anchor="start" x="171.5" y="-113.3" font-family="Times,serif" font-size="14.00"> 2: temp</text>
<text text-anchor="start" x="171.5" y="-98.3" font-family="Times,serif" font-size="14.00"> 3: [B2.2] = [B2.1]</text>
</g>
<!-- Node0xa03e950&#45;&gt;Node0xa03e878 -->
<g id="edge2" class="edge"><title>Node0xa03e950&#45;&gt;Node0xa03e878</title>
<path fill="none" stroke="black" d="M224,-90.3668C224,-81.7876 224,-72.5117 224,-63.8025"/>
<polygon fill="black" stroke="black" points="227.5,-63.5451 224,-53.5452 220.5,-63.5452 227.5,-63.5451"/>
</g>
<!-- Node0xa03ea28 -->
<g id="node5" class="node"><title>Node0xa03ea28</title>
<polygon fill="none" stroke="black" points="302.5,-90.5 302.5,-158.5 423.5,-158.5 423.5,-90.5 302.5,-90.5"/>
<text text-anchor="start" x="310.5" y="-143.3" font-family="Times,serif" font-size="14.00">[B3]</text>
<text text-anchor="start" x="310.5" y="-128.3" font-family="Times,serif" font-size="14.00"> 1: 1</text>
<text text-anchor="start" x="310.5" y="-113.3" font-family="Times,serif" font-size="14.00"> 2: temp</text>
<text text-anchor="start" x="310.5" y="-98.3" font-family="Times,serif" font-size="14.00"> 3: [B3.2] = [B3.1]</text>
</g>
<!-- Node0xa03ea28&#45;&gt;Node0xa03e878 -->
<g id="edge3" class="edge"><title>Node0xa03ea28&#45;&gt;Node0xa03e878</title>
<path fill="none" stroke="black" d="M314.775,-90.3668C300.092,-80.2791 284.008,-69.2283 269.511,-59.2681"/>
<polygon fill="black" stroke="black" points="271.405,-56.3232 261.181,-53.5452 267.441,-62.0928 271.405,-56.3232"/>
</g>
<!-- Node0xa03eb20&#45;&gt;Node0xa03e950 -->
<g id="edge5" class="edge"><title>Node0xa03eb20&#45;&gt;Node0xa03e950</title>
<path fill="none" stroke="black" d="M306.062,-195.164C294.366,-185.235 282.179,-174.89 270.886,-165.303"/>
<polygon fill="black" stroke="black" points="273.117,-162.605 263.228,-158.802 268.586,-167.942 273.117,-162.605"/>
</g>
<!-- Node0xa03eb20&#45;&gt;Node0xa03ea28 -->
<g id="edge4" class="edge"><title>Node0xa03eb20&#45;&gt;Node0xa03ea28</title>
<path fill="none" stroke="black" d="M363,-195.164C363,-186.477 363,-177.47 363,-168.931"/>
<polygon fill="black" stroke="black" points="366.5,-168.802 363,-158.802 359.5,-168.802 366.5,-168.802"/>
</g>
<!-- Node0xa03ed10 -->
<g id="node7" class="node"><title>Node0xa03ed10</title>
<polygon fill="none" stroke="black" points="90.5,-465.5 90.5,-563.5 211.5,-563.5 211.5,-465.5 90.5,-465.5"/>
<text text-anchor="start" x="98.5" y="-548.3" font-family="Times,serif" font-size="14.00">[B6]</text>
<text text-anchor="start" x="98.5" y="-533.3" font-family="Times,serif" font-size="14.00"> 1: int i;</text>
<text text-anchor="start" x="98.5" y="-518.3" font-family="Times,serif" font-size="14.00"> 2: int temp;</text>
<text text-anchor="start" x="98.5" y="-503.3" font-family="Times,serif" font-size="14.00"> 3: 1</text>
<text text-anchor="start" x="98.5" y="-488.3" font-family="Times,serif" font-size="14.00"> 4: i</text>
<text text-anchor="start" x="98.5" y="-473.3" font-family="Times,serif" font-size="14.00"> 5: [B6.4] = [B6.3]</text>
</g>
<!-- Node0xa03ed10&#45;&gt;Node0xa03ec18 -->
<g id="edge8" class="edge"><title>Node0xa03ed10&#45;&gt;Node0xa03ec18</title>
<path fill="none" stroke="black" d="M151,-465.484C151,-456.927 151,-447.927 151,-439.114"/>
<polygon fill="black" stroke="black" points="154.5,-438.892 151,-428.892 147.5,-438.892 154.5,-438.892"/>
</g>
<!-- Node0xa03ee88 -->
<g id="node8" class="node"><title>Node0xa03ee88</title>
<polygon fill="none" stroke="black" points="101.5,-600.5 101.5,-636.5 200.5,-636.5 200.5,-600.5 101.5,-600.5"/>
<text text-anchor="start" x="109.5" y="-614.8" font-family="Times,serif" font-size="14.00">[B7 (ENTRY)]</text>
</g>
<!-- Node0xa03ee88&#45;&gt;Node0xa03ed10 -->
<g id="edge9" class="edge"><title>Node0xa03ee88&#45;&gt;Node0xa03ed10</title>
<path fill="none" stroke="black" d="M151,-600.197C151,-592.688 151,-583.415 151,-573.789"/>
<polygon fill="black" stroke="black" points="154.5,-573.688 151,-563.688 147.5,-573.688 154.5,-573.688"/>
</g>
</g>
</svg>
